# xmcd
#
# Track frame offsets: 
#        150
#        11150
#        22245
#        36497
#        51495
#        64037
#        75577
#        86742
#        100075
#        113927
#        123525
#        135040
#        150752
#        164065
#        176420
#        190512
#        205012
#        219305
#        230317
#        243077
#        255982
#        267972
#        279767
#        292992
#        303987
#        318975
#        331487
#
# Disc length: 4595 seconds
#
# Revision: 2
# Processed by: cddbd v1.5.2PL0 Copyright (c) Steve Scherf et al.
# Submitted via: ExactAudioCopy v0.95b4
#
DISCID=6911f11b
DTITLE=Sheb Wooley - That's My Pa - disc 3
DYEAR=1900
DGENRE=
TTITLE0=Memories Are Made Of This - 1997
TTITLE1=That's My Pa - 1961
TTITLE2=That's My Ma - 1962
TTITLE3=Daddy Kiss And Make It Well - 1962
TTITLE4=Sally's Arms - 1965
TTITLE5=Blue Guitar - 1964
TTITLE6=Ten Chances To One - 1962
TTITLE7=Only For You - 1997
TTITLE8=Jjuarez (with recitation) - 1997
TTITLE9=Wildwood Flower On The Autoharp - 1966
TTITLE10=Anchor's Aweigh (My Love) - 1966
TTITLE11=The Will - 1970
TTITLE12=Cowboy Hero - 1963
TTITLE13=The Big Blizzard - 1964
TTITLE14=Four Walls - 1997
TTITLE15=Tonight's The Night My Angel's Halo Fell - 1966
TTITLE16=A Letter To Daddy - 1967
TTITLE17=Daddy's Home - 1970
TTITLE18=Number One On The Survey - 1966
TTITLE19=She Called Me Baby - 1964
TTITLE20=Laughin' The Blues - 1962
TTITLE21=Roughneck - 1959
TTITLE22=Tennessee Walkin' Horse - 1997
TTITLE23=The Legend Of Echo Mountain - 1962
TTITLE24=Natchez Landing - 1964
TTITLE25=The Recipient (The Heart Song) (alt) - 1997
TTITLE26=Nobody's Child - 1997
EXTD=
EXTT0=
EXTT1=
EXTT2=
EXTT3=
EXTT4=
EXTT5=
EXTT6=
EXTT7=
EXTT8=
EXTT9=
EXTT10=
EXTT11=
EXTT12=
EXTT13=
EXTT14=
EXTT15=
EXTT16=
EXTT17=
EXTT18=
EXTT19=
EXTT20=
EXTT21=
EXTT22=
EXTT23=
EXTT24=
EXTT25=
EXTT26=
PLAYORDER=
